<svg width="40" height="40" viewBox="0 0 40 40" fill="none" xmlns="http://www.w3.org/2000/svg">
<rect width="40" height="40" rx="8" fill="url(#paint0_linear_2036:96698)"/>
<path d="M16.4977 27.1067V16.4475C16.4977 16.0478 16.7107 15.8036 17.1367 15.7147L25.9551 13.8494C26.4238 13.7605 26.6794 13.9826 26.722 14.5156V22.6432C26.722 23.3094 25.7634 23.7535 23.8464 23.9756C20.204 24.5751 20.7791 30.9706 25.7634 29.2385C27.6805 28.5057 28 26.5737 28 24.6418V9.05276C28 9.05276 28 7.72036 26.9137 8.05346L16.0504 10.3851C16.0504 10.3851 15.2196 10.5184 15.2196 11.5843V25.1081C15.2196 25.7743 14.2611 26.2184 12.3441 26.4405C8.70167 27.0401 9.27678 33.4356 14.2611 31.7035C16.1782 30.9706 16.4977 29.0387 16.4977 27.1067Z" fill="white"/>
<defs>
<linearGradient id="paint0_linear_2036:96698" x1="20" y1="0" x2="20" y2="40" gradientUnits="userSpaceOnUse">
<stop stop-color="#F76076"/>
<stop offset="1" stop-color="#FE243C"/>
</linearGradient>
</defs>
</svg>