<svg version="1.1" id="Layer_1" xmlns="http://www.w3.org/2000/svg" xmlns:xlink="http://www.w3.org/1999/xlink" x="0px" y="0px" viewBox="0 0 40 40" style="enable-background:new 0 0 40 40;" xml:space="preserve">
<style type="text/css">
	.st0{fill:#00FF8B;}
	.st1{fill-rule:evenodd;clip-rule:evenodd;fill:#A238FF;}
	.st2{fill:#FFFFFF;}
	.st3{fill:#141414;}
	.st4{fill-rule:evenodd;clip-rule:evenodd;fill:url(#SVGID_1_);}
	.st5{fill:#FF0000;}
	.st6{clip-path:url(#SVGID_00000085231974241936383720000004420792240024865181_);}
</style>
<path d="M8,0h24c4.4,0,8,3.6,8,8v24c0,4.4-3.6,8-8,8H8c-4.4,0-8-3.6-8-8V8C0,3.6,3.6,0,8,0z"/>
<path class="st1" d="M26.8,13.4c0.2-1.1,0.5-1.8,0.8-1.8h0c0.6,0,1.1,2.5,1.1,5.5c0,3-0.5,5.5-1.1,5.5c-0.2,0-0.5-0.4-0.6-1.1  c-0.3,2.6-0.9,4.3-1.6,4.3c-0.5,0-1-1.1-1.3-2.7c-0.2,3.2-0.8,5.4-1.4,5.4c-0.4,0-0.8-0.9-1-2.3c-0.3,3-1.1,5.1-2,5.1  c-0.9,0-1.6-2.1-2-5.1c-0.3,1.5-0.6,2.3-1,2.3c-0.6,0-1.2-2.2-1.4-5.4c-0.3,1.7-0.8,2.7-1.3,2.7c-0.7,0-1.3-1.8-1.6-4.3  c-0.2,0.7-0.4,1.1-0.6,1.1c-0.6,0-1.1-2.5-1.1-5.5c0-3,0.5-5.5,1.1-5.5c0.3,0,0.6,0.7,0.8,1.8c0.3-1.9,0.8-3.2,1.4-3.2  c0.7,0,1.3,1.8,1.6,4.4c0.3-1.9,0.7-3.1,1.2-3.1c0.7,0,1.2,2.4,1.4,5.7c0.4-1.7,0.9-2.8,1.6-2.8c0.6,0,1.2,1.1,1.6,2.8  c0.2-3.3,0.8-5.7,1.4-5.7c0.5,0,0.9,1.2,1.2,3.1c0.3-2.6,0.9-4.4,1.6-4.4C25.9,10.2,26.4,11.5,26.8,13.4z M9.1,16.5  c0-1.4,0.3-2.5,0.6-2.5c0.3,0,0.6,1.1,0.6,2.5S10.1,19,9.7,19C9.4,19,9.1,17.9,9.1,16.5z M28.9,16.5c0-1.4,0.3-2.5,0.6-2.5  s0.6,1.1,0.6,2.5S29.9,19,29.5,19S28.9,17.9,28.9,16.5z"/>
</svg>