<svg width="40" height="40" viewBox="0 0 40 40" fill="none" xmlns="http://www.w3.org/2000/svg">
<rect width="40" height="40" rx="8" fill="url(#paint0_linear_2036:96678)"/>
<path d="M25.2699 20.0885C25.0542 20.2323 24.7307 20.3401 24.3353 20.3401C23.7241 20.3401 23.149 20.2682 22.5738 20.0885C22.43 20.0525 22.3221 20.0166 22.2502 20.0166C22.1424 20.0166 22.1064 20.0885 22.1064 20.2323V20.5918C22.1064 20.6996 22.1424 20.7715 22.1783 20.8434C22.2143 20.8794 22.2862 20.9513 22.394 20.9872C22.9692 21.2388 23.6163 21.3467 24.3353 21.3467C25.0902 21.3467 25.6654 21.1669 26.1327 20.8075C26.6 20.448 26.8157 19.9806 26.8157 19.3695C26.8157 18.9381 26.7079 18.6146 26.4922 18.327C26.2765 18.0753 25.917 17.8237 25.4137 17.644L24.4072 17.2485C24.0117 17.1047 23.7241 16.9609 23.6163 16.8171C23.4725 16.6733 23.4006 16.5295 23.4006 16.2779C23.4006 15.7387 23.796 15.4511 24.6229 15.4511C25.0902 15.4511 25.5575 15.523 25.9889 15.6668C26.1327 15.7027 26.2406 15.7387 26.2765 15.7387C26.3844 15.7387 26.4562 15.6668 26.4562 15.523V15.1635C26.4562 15.0556 26.4203 14.9838 26.3844 14.9119C26.3484 14.84 26.2765 14.804 26.1687 14.7681C25.6294 14.5883 25.0902 14.4805 24.551 14.4805C23.8679 14.4805 23.2928 14.6602 22.8614 14.9838C22.43 15.3073 22.2143 15.7746 22.2143 16.3139C22.2143 17.1407 22.6816 17.7518 23.6163 18.1113L24.6948 18.5067C25.0542 18.6505 25.2699 18.7584 25.4137 18.9022C25.5575 19.046 25.5935 19.1898 25.5935 19.4055C25.5935 19.693 25.4856 19.9447 25.2699 20.0885Z" fill="white"/>
<path d="M19.6259 14.9118V19.693C19.0148 20.0884 18.4037 20.3041 17.7925 20.3041C17.3971 20.3041 17.1095 20.1963 16.9298 19.9806C16.75 19.7649 16.6781 19.4413 16.6781 18.974V14.9118C16.6781 14.7321 16.6062 14.6602 16.4265 14.6602H15.6716C15.4918 14.6602 15.4199 14.7321 15.4199 14.9118V19.3694C15.4199 19.9806 15.5637 20.4839 15.8873 20.8074C16.2108 21.1309 16.6781 21.3107 17.2893 21.3107C18.1161 21.3107 18.9429 21.0231 19.7338 20.4479L19.8057 20.8793C19.8057 20.9871 19.8416 21.0231 19.9135 21.059C19.9495 21.095 20.0214 21.095 20.1292 21.095H20.6684C20.8482 21.095 20.9201 21.0231 20.9201 20.8433V14.9118C20.9201 14.7321 20.8482 14.6602 20.6684 14.6602H19.9135C19.6978 14.6602 19.6259 14.768 19.6259 14.9118Z" fill="white"/>
<path d="M12.7953 21.131H13.5502C13.7299 21.131 13.8018 21.0591 13.8018 20.8794V16.3858C13.8018 15.7746 13.658 15.3073 13.3345 14.9838C13.0109 14.6602 12.5796 14.4805 11.9684 14.4805C11.1416 14.4805 10.2788 14.7681 9.45202 15.3792C9.16443 14.7681 8.62519 14.4805 7.83432 14.4805C7.04345 14.4805 6.25257 14.7681 5.4617 15.3073L5.3898 14.9119C5.3898 14.804 5.35385 14.7681 5.28196 14.7321C5.24601 14.6962 5.17411 14.6962 5.10221 14.6962H4.52703C4.34729 14.6962 4.27539 14.7681 4.27539 14.9478V20.9153C4.27539 21.095 4.34729 21.1669 4.52703 21.1669H5.28196C5.4617 21.1669 5.5336 21.095 5.5336 20.9153V16.0622C6.14473 15.7027 6.75586 15.487 7.40293 15.487C7.76242 15.487 8.01406 15.5949 8.15786 15.8106C8.30165 16.0263 8.4095 16.3139 8.4095 16.7452V20.8794C8.4095 21.0591 8.4814 21.131 8.66114 21.131H9.41607C9.59581 21.131 9.66771 21.0591 9.66771 20.8794V16.4577V16.242C9.66771 16.1701 9.66771 16.0982 9.66771 16.0622C10.3148 15.6668 10.9259 15.487 11.537 15.487C11.8965 15.487 12.1482 15.5949 12.292 15.8106C12.4358 16.0263 12.5436 16.3139 12.5436 16.7452V20.8794C12.5436 21.0591 12.6155 21.131 12.7953 21.131Z" fill="white"/>
<path d="M32.3872 25.9122C28.4688 27.5658 24.1909 28.3927 20.3084 28.3927C14.5566 28.3927 8.98458 26.8109 4.49098 24.1866C4.41908 24.1507 4.34718 24.1147 4.27529 24.1147C4.02364 24.1147 3.87985 24.4023 4.13149 24.654C8.30155 28.4286 13.8377 30.6934 19.949 30.6934C24.3347 30.6934 29.4035 29.3273 32.8905 26.739C33.5017 26.3076 32.9984 25.6605 32.3872 25.9122Z" fill="white"/>
<path d="M32.2799 16.0981C32.6034 15.7386 33.1067 15.5589 33.8257 15.5589C34.1851 15.5589 34.5446 15.5948 34.8682 15.7027C34.976 15.7386 35.012 15.7386 35.0839 15.7386C35.1917 15.7386 35.2636 15.6667 35.2636 15.487V15.1275C35.2636 15.0196 35.2277 14.9118 35.1917 14.8758C35.1558 14.8399 35.0839 14.768 35.012 14.7321C34.5446 14.6242 34.0773 14.5164 33.6459 14.5164C32.6394 14.5164 31.8844 14.8039 31.3092 15.4151C30.77 15.9903 30.4824 16.853 30.4824 17.9315C30.4824 19.01 30.7341 19.8368 31.2733 20.412C31.8125 20.9871 32.5675 21.2747 33.574 21.2747C34.1133 21.2747 34.6165 21.2028 35.012 21.0231C35.1198 20.9871 35.1917 20.9512 35.2277 20.8793C35.2636 20.8433 35.2636 20.7355 35.2636 20.6277V20.2682C35.2636 20.0884 35.1917 20.0165 35.0839 20.0165C35.0479 20.0165 34.976 20.0165 34.9041 20.0525C34.5087 20.1603 34.1133 20.2322 33.7538 20.2322C33.0707 20.2322 32.5675 20.0525 32.2439 19.693C31.9204 19.3335 31.7766 18.7583 31.7766 18.0034V17.8236C31.8125 17.0328 31.9563 16.4576 32.2799 16.0981Z" fill="white"/>
<path d="M33.8968 29.2914C35.7661 27.7097 36.2694 24.4383 35.874 23.935C35.6942 23.7194 34.8314 23.5037 33.753 23.5037C32.6026 23.5037 31.2366 23.7553 30.1941 24.4743C29.8705 24.69 29.9424 24.9776 30.2659 24.9416C31.3804 24.7978 33.8968 24.5102 34.3641 25.0854C34.7955 25.6606 33.8608 28.0332 33.4294 29.0757C33.3216 29.3993 33.5732 29.5071 33.8968 29.2914Z" fill="white"/>
<path d="M28.8991 14.6602H28.1442C27.9645 14.6602 27.8926 14.7321 27.8926 14.9118V20.8793C27.8926 21.059 27.9645 21.1309 28.1442 21.1309H28.8991C29.0789 21.1309 29.1508 21.059 29.1508 20.8793V14.9118C29.1508 14.768 29.0789 14.6602 28.8991 14.6602Z" fill="white"/>
<path d="M29.1159 12.2157C28.9721 12.0719 28.7564 12 28.5047 12C28.2531 12 28.0734 12.0719 27.9296 12.2157C27.7858 12.3595 27.7139 12.5392 27.7139 12.7549C27.7139 12.9706 27.7858 13.1863 27.9296 13.2942C28.0734 13.438 28.2531 13.5098 28.5047 13.5098C28.7564 13.5098 28.9361 13.438 29.0799 13.2942C29.2237 13.1504 29.2956 12.9706 29.2956 12.7549C29.2956 12.5392 29.2597 12.3235 29.1159 12.2157Z" fill="white"/>
<defs>
<linearGradient id="paint0_linear_2036:96678" x1="20" y1="0" x2="20" y2="40" gradientUnits="userSpaceOnUse">
<stop stop-color="#4DC0F0"/>
<stop offset="1" stop-color="#0E6EB5"/>
</linearGradient>
</defs>
</svg>