<svg width="40" height="40" viewBox="0 0 40 40" fill="none" xmlns="http://www.w3.org/2000/svg">
<rect width="40" height="40" rx="8" fill="url(#paint0_linear_2036:96800)"/>
<path fill-rule="evenodd" clip-rule="evenodd" d="M20 5C16.0218 5 12.2064 6.58035 9.3934 9.3934C6.58035 12.2064 5 16.0218 5 20C5 23.9782 6.58035 27.7936 9.3934 30.6066C12.2064 33.4196 16.0218 35 20 35C23.9782 35 27.7936 33.4196 30.6066 30.6066C33.4196 27.7936 35 23.9782 35 20C35 16.0218 33.4196 12.2064 30.6066 9.3934C27.7936 6.58035 23.9782 5 20 5ZM26.8799 26.6344C26.816 26.7395 26.732 26.8309 26.6327 26.9034C26.5334 26.9759 26.4208 27.0281 26.3013 27.057C26.1817 27.0858 26.0577 27.0908 25.9363 27.0717C25.8148 27.0525 25.6983 27.0095 25.5935 26.9453C22.0707 24.7933 17.6392 24.3071 12.4171 25.4995C12.2975 25.5268 12.1736 25.5303 12.0527 25.5097C11.9317 25.4892 11.8159 25.445 11.712 25.3797C11.6081 25.3145 11.5181 25.2294 11.447 25.1293C11.376 25.0292 11.3254 24.9161 11.2981 24.7965C11.2708 24.6769 11.2673 24.553 11.2878 24.432C11.3084 24.3111 11.3525 24.1953 11.4178 24.0914C11.4831 23.9875 11.5682 23.8974 11.6683 23.8264C11.7683 23.7554 11.8814 23.7048 12.0011 23.6775C17.7141 22.3704 22.6158 22.933 26.5691 25.3496C27.009 25.619 27.1477 26.1945 26.8799 26.6344ZM28.7131 22.5505C28.5509 22.8144 28.2906 23.0032 27.9894 23.0755C27.6882 23.1478 27.3706 23.0977 27.1063 22.9362C23.0749 20.4575 16.9283 19.7402 12.1589 21.1876C11.8687 21.2564 11.5632 21.212 11.3046 21.0634C11.046 20.9148 10.8539 20.6731 10.7673 20.3878C10.6807 20.1024 10.7062 19.7947 10.8386 19.5275C10.971 19.2602 11.2003 19.0535 11.4798 18.9495C16.9283 17.2965 23.6998 18.0983 28.3289 20.9421C28.46 21.0224 28.574 21.1278 28.6644 21.2522C28.7547 21.3766 28.8197 21.5176 28.8555 21.6671C28.8913 21.8166 28.8973 21.9718 28.8731 22.1236C28.849 22.2755 28.7951 22.4211 28.7147 22.5521L28.7131 22.5505ZM28.8741 18.2976C24.0377 15.4267 16.0611 15.1621 11.4463 16.5648C11.2692 16.6213 11.0827 16.6421 10.8975 16.6258C10.7123 16.6096 10.5322 16.5567 10.3677 16.4703C10.2031 16.3838 10.0574 16.2655 9.93891 16.1223C9.82046 15.979 9.73167 15.8136 9.67769 15.6357C9.62372 15.4579 9.60563 15.271 9.62449 15.0861C9.64335 14.9012 9.69878 14.7218 9.78755 14.5585C9.87632 14.3952 9.99667 14.2511 10.1416 14.1347C10.2865 14.0183 10.4531 13.9319 10.6318 13.8804C15.9288 12.2705 24.7375 12.5829 30.3023 15.8858C30.6224 16.0756 30.8539 16.3848 30.946 16.7453C31.038 17.1058 30.9831 17.4881 30.7933 17.8082C30.6035 18.1282 30.2943 18.3597 29.9338 18.4518C29.5733 18.5439 29.1909 18.489 28.8709 18.2991" fill="#1ED760"/>
<defs>
<linearGradient id="paint0_linear_2036:96800" x1="-4.75388e-07" y1="29.8333" x2="40" y2="4.47035e-07" gradientUnits="userSpaceOnUse">
<stop stop-color="#202122"/>
<stop offset="1" stop-color="#26303C"/>
</linearGradient>
</defs>
</svg>