<svg width="40" height="40" viewBox="0 0 40 40" fill="none" xmlns="http://www.w3.org/2000/svg">
<rect width="40" height="40" rx="8" fill="#FF0000"/>
<path d="M20 6.30435C27.5326 6.30435 33.6957 12.4348 33.6957 20C33.6957 27.5652 27.5652 33.6957 20 33.6957C12.4348 33.6957 6.30435 27.5652 6.30435 20C6.30435 12.4348 12.4674 6.30435 20 6.30435ZM20 5C11.7174 5 5 11.7174 5 20C5 28.2826 11.7174 35 20 35C28.2826 35 35 28.2826 35 20C35 11.7174 28.2826 5 20 5Z" fill="white"/>
<path d="M14.7822 27.5L27.4996 19.6739L14.7822 12.5V27.5Z" fill="white"/>
</svg>